<svg width="401" height="312" viewBox="0 0 401 312" fill="none" xmlns="http://www.w3.org/2000/svg">
<path d="M388.067 28.1308C329.588 44.2363 281.125 33.4004 260.67 78.8393C242.542 119.11 192.886 85.0966 162.015 111.425C140.046 130.161 124.65 144.146 120.718 172.749C116.598 202.726 134.568 218.033 146.79 245.714C171.98 302.766 115.568 286.722 48.1446 307.272C-19.2785 327.822 -6.35729 266.721 31.3587 281.98C69.0746 297.238 102.422 273.319 115.693 251.113C132.291 223.34 97.6229 219.759 87.3105 182.93C76.8712 145.647 125.396 140.855 132.127 87.273C138.858 33.6914 223.013 99.9986 250.177 50.8593C268.109 18.4201 280.682 25.059 300.141 8.42391C324.622 -12.5058 438.048 14.366 388.067 28.1308Z" fill="#FF4F09"/>
</svg>
